<?xml version="1.0" encoding="UTF-8" standalone="no" ?>
<!DOCTYPE svg PUBLIC "-//W3C//DTD SVG 1.1//EN" "http://www.w3.org/Graphics/SVG/1.1/DTD/svg11.dtd">
<svg xmlns="http://www.w3.org/2000/svg" xmlns:xlink="http://www.w3.org/1999/xlink" version="1.1" width="118" height="200" viewBox="0 0 295 500" xml:space="preserve">
<desc>Created with Fabric.js 4.6.0</desc>
<defs>
</defs>
<g transform="matrix(3.26 0 0 3.27 148 249)" id="OeCpFlwIuXeCjaDK1LT0m"  >
<g style="" vector-effect="non-scaling-stroke"   >
		<g transform="matrix(1 0 0 1 0 -20.63)" id="tuGIpnX8Wcxc9r45VSdTl"  >
<path style="stroke: none; stroke-width: 1; stroke-dasharray: none; stroke-linecap: butt; stroke-dashoffset: 0; stroke-linejoin: miter; stroke-miterlimit: 4; fill: rgb(249,255,0); fill-rule: nonzero; opacity: 0.68;" vector-effect="non-scaling-stroke"  transform=" translate(-211.42, -636.4)" d="M 211.42 581.09 C 186.927 581.09 167.076 600.941 167.076 625.4340000000001 C 167.076 636.6010000000001 171.2012 646.7930000000001 178.01399999999998 654.59 C 181.892 658.6418 184.6135 664.5133000000001 185.48279999999997 671.246 L 185.50189999999998 683.675 C 185.50189999999998 688.1277 189.0775 691.7034 193.53029999999998 691.7034 L 229.31029999999998 691.7034 C 233.76299999999998 691.7034 237.3387 688.1278 237.3387 683.675 L 237.32659999999998 671.246 C 238.19110999999998 664.5264 240.93689999999998 658.672 244.79539999999997 654.621 C 244.79839999999996 654.611 244.79339999999996 654.5995 244.79539999999997 654.5898 C 251.61099999999996 646.7922 255.76439999999997 636.6038 255.76439999999997 625.4338 C 255.76439999999997 600.9408 235.91339999999997 581.0898 211.42039999999997 581.0898 z" stroke-linecap="round" />
</g>
		<g transform="matrix(1 0 0 1 0 45.96)" id="QKbLszVYJkTxykktwtE6I"  >
<linearGradient id="SVGID_168" gradientUnits="userSpaceOnUse" gradientTransform="matrix(1 0 0 1 -338.57 -687.36)"  x1="340.55" y1="707.61" x2="371.8" y2="707.61">
<stop offset="0%" style="stop-color:rgb(128,128,128);stop-opacity: 1"/>
<stop offset="100%" style="stop-color:rgb(91,91,91);stop-opacity: 1"/>
</linearGradient>
<path style="stroke: none; stroke-width: 1; stroke-dasharray: none; stroke-linecap: butt; stroke-dashoffset: 0; stroke-linejoin: miter; stroke-miterlimit: 4; fill: url(#SVGID_168); fill-rule: nonzero; opacity: 1;" vector-effect="non-scaling-stroke"  transform=" translate(-16.88, -15.63)" d="M 0 31.25 L 0 0 L 33.75 0 L 33.75 31.25 z" stroke-linecap="round" />
</g>
		<g transform="matrix(1 0 0 1 0 45.96)" id="PRu27OQr53a77jy8ai2Fk"  >
<linearGradient id="SVGID_169" gradientUnits="userSpaceOnUse" gradientTransform="matrix(1 0 0 1 -407.33 -687.36)"  x1="425.3" y1="686.33" x2="425.3" y2="700.68">
<stop offset="0%" style="stop-color:rgb(0,0,0);stop-opacity: 1"/>
<stop offset="100%" style="stop-color:rgb(0,0,0);stop-opacity: 0"/>
</linearGradient>
<path style="stroke: none; stroke-width: 1; stroke-dasharray: none; stroke-linecap: butt; stroke-dashoffset: 0; stroke-linejoin: miter; stroke-miterlimit: 4; fill: url(#SVGID_169); fill-rule: nonzero; opacity: 1;" vector-effect="non-scaling-stroke"  transform=" translate(-16.88, -15.63)" d="M 0 31.25 L 0 0 L 33.75 0 L 33.75 31.25 z" stroke-linecap="round" />
</g>
		<g transform="matrix(1 0 0 1 -0.02 50.14)" id="4SuzsKO2ZVXKcZQAiNfyb"  >
<linearGradient id="SVGID_170" gradientUnits="userSpaceOnUse" gradientTransform="matrix(1 0 0 1 51.03 580)"  x1="178.75" y1="127.11" x2="140.99" y2="127.11">
<stop offset="0%" style="stop-color:rgb(88,88,88);stop-opacity: 1"/>
<stop offset="100%" style="stop-color:rgb(67,67,67);stop-opacity: 1"/>
</linearGradient>
<path style="stroke: none; stroke-width: 1; stroke-dasharray: none; stroke-linecap: butt; stroke-dashoffset: 0; stroke-linejoin: miter; stroke-miterlimit: 4; fill: url(#SVGID_170); fill-rule: nonzero; opacity: 1;" vector-effect="non-scaling-stroke"  transform=" translate(-211.41, -707.17)" d="M 192.53 695.84 L 192.53 698.2775 L 210.28 695.84 L 192.53 695.84 z M 230.28 696.09 L 192.53 701.2775 L 192.53 703.34 L 230.28 698.1525 L 230.28 696.09 z M 230.28 701.1525 L 192.53 706.34 L 192.53 708.4025 L 230.28 703.215 L 230.28 701.1525 z M 230.28 706.215 L 192.53 711.4025 L 192.53 713.4337 L 230.28 708.2462 L 230.28 706.215 z M 230.28 711.2462 L 192.53 716.4337 L 192.53 718.4962 L 230.28 713.3087 L 230.28 711.2462 z" stroke-linecap="round" />
</g>
		<g transform="matrix(1 0 0 1 0 35.07)" id="3ccYIf_Rcsopf7BeF1_JB"  >
<linearGradient id="SVGID_171" gradientUnits="userSpaceOnUse" gradientTransform="matrix(1 0 0 1 -144.02 0)"  x1="340.55" y1="707.61" x2="371.8" y2="707.61">
<stop offset="0%" style="stop-color:rgb(128,128,128);stop-opacity: 1"/>
<stop offset="100%" style="stop-color:rgb(91,91,91);stop-opacity: 1"/>
</linearGradient>
<path style="stroke: none; stroke-width: 1; stroke-dasharray: none; stroke-linecap: butt; stroke-dashoffset: 0; stroke-linejoin: miter; stroke-miterlimit: 4; fill: url(#SVGID_171); fill-rule: nonzero; opacity: 1;" vector-effect="non-scaling-stroke"  transform=" translate(-211.42, -692.1)" d="M 192.17 688.22 L 192.17 693.47 C 192.17 694.855 193.285 695.97 194.67 695.97 L 228.17 695.97 C 229.55499999999998 695.97 230.67 694.855 230.67 693.47 L 230.67 688.22 z" stroke-linecap="round" />
</g>
		<g transform="matrix(1 0 0 1 0 35.07)" id="PmPZgjuNiaSgOCc64oHZD"  >
<linearGradient id="SVGID_172" gradientUnits="userSpaceOnUse" gradientTransform="matrix(1 0 0 1 -144.02 0)"  x1="353.86" y1="690.18" x2="353.86" y2="693.88">
<stop offset="0%" style="stop-color:rgb(0,0,0);stop-opacity: 1"/>
<stop offset="100%" style="stop-color:rgb(0,0,0);stop-opacity: 0"/>
</linearGradient>
<path style="stroke: none; stroke-width: 1; stroke-dasharray: none; stroke-linecap: butt; stroke-dashoffset: 0; stroke-linejoin: miter; stroke-miterlimit: 4; fill: url(#SVGID_172); fill-rule: nonzero; opacity: 1;" vector-effect="non-scaling-stroke"  transform=" translate(-211.42, -692.1)" d="M 192.17 688.22 L 192.17 693.47 C 192.17 694.855 193.285 695.97 194.67 695.97 L 228.17 695.97 C 229.55499999999998 695.97 230.67 694.855 230.67 693.47 L 230.67 688.22 z" stroke-linecap="round" />
</g>
		<g transform="matrix(1 0 0 1 0 -20.63)" id="V55rvBb7bEq7gpn_M12Sh"  >
<linearGradient id="SVGID_173" gradientUnits="userSpaceOnUse" gradientTransform="matrix(1 0 0 1 -144.02 0)"  x1="316.3" y1="614.86" x2="388.55" y2="640.86">
<stop offset="0%" style="stop-color:rgb(254,254,249);stop-opacity: 0.31390134"/>
<stop offset="100%" style="stop-color:rgb(61,61,61);stop-opacity: 0.53589"/>
</linearGradient>
<path style="stroke: none; stroke-width: 1; stroke-dasharray: none; stroke-linecap: butt; stroke-dashoffset: 0; stroke-linejoin: miter; stroke-miterlimit: 4; fill: url(#SVGID_173); fill-rule: nonzero; opacity: 0.28;" vector-effect="non-scaling-stroke"  transform=" translate(-211.42, -636.4)" d="M 211.42 581.09 C 186.927 581.09 167.076 600.941 167.076 625.4340000000001 C 167.076 636.6010000000001 171.2012 646.7930000000001 178.01399999999998 654.59 C 181.892 658.6418 184.6135 664.5133000000001 185.48279999999997 671.246 L 185.50189999999998 683.675 C 185.50189999999998 688.1277 189.0775 691.7034 193.53029999999998 691.7034 L 229.31029999999998 691.7034 C 233.76299999999998 691.7034 237.3387 688.1278 237.3387 683.675 L 237.32659999999998 671.246 C 238.19110999999998 664.5264 240.93689999999998 658.672 244.79539999999997 654.621 C 244.79839999999996 654.611 244.79339999999996 654.5995 244.79539999999997 654.5898 C 251.61099999999996 646.7922 255.76439999999997 636.6038 255.76439999999997 625.4338 C 255.76439999999997 600.9408 235.91339999999997 581.0898 211.42039999999997 581.0898 z" stroke-linecap="round" />
</g>
		<g transform="matrix(1 0 0 1 -0.02 63.94)" id="-saTTpS-VzcH-DCddZRpq"  >
<path style="stroke: none; stroke-width: 1; stroke-dasharray: none; stroke-linecap: butt; stroke-dashoffset: 0; stroke-linejoin: miter; stroke-miterlimit: 4; fill: rgb(128,128,128); fill-rule: nonzero; opacity: 1;" vector-effect="non-scaling-stroke"  transform=" translate(-211.41, -720.97)" d="M 194.53 718.59 L 198.78 723.34 L 224.03 723.34 L 228.28 718.59 z" stroke-linecap="round" />
</g>
		<g transform="matrix(1 0 0 1 -0.02 71.13)" id="haoFoygmF9g3XWwad87nW"  >
<path style="stroke: none; stroke-width: 1; stroke-dasharray: none; stroke-linecap: butt; stroke-dashoffset: 0; stroke-linejoin: miter; stroke-miterlimit: 4; fill: rgb(52,52,52); fill-rule: nonzero; opacity: 1;" vector-effect="non-scaling-stroke"  transform=" translate(-211.41, -728.15)" d="M 198.77 723.34 C 198.77 724.3774000000001 199.29146 725.4148 200.33440000000002 726.2096 L 207.6399 731.7776 C 209.72580000000002 733.3674 213.0843 733.3674 215.17020000000002 731.7776 L 222.47570000000002 726.2096 C 223.51870000000002 725.41471 224.04010000000002 724.3773 224.04010000000002 723.34 z" stroke-linecap="round" />
</g>
		<g transform="matrix(1 0 0 1 0 -20.63)" id="6NJRYg7yB0jVxti8KDU6N"  >
<linearGradient id="SVGID_174" gradientUnits="userSpaceOnUse" gradientTransform="matrix(1 0 0 1 -144.02 0)"  x1="362.05" y1="685.29" x2="361.54999" y2="650.59003">
<stop offset="0%" style="stop-color:rgb(233,227,55);stop-opacity: 1"/>
<stop offset="100%" style="stop-color:rgb(249,252,162);stop-opacity: 0"/>
</linearGradient>
<path style="stroke: none; stroke-width: 1; stroke-dasharray: none; stroke-linecap: butt; stroke-dashoffset: 0; stroke-linejoin: miter; stroke-miterlimit: 4; fill: url(#SVGID_174); fill-rule: nonzero; opacity: 1;" vector-effect="non-scaling-stroke"  transform=" translate(-211.42, -636.4)" d="M 211.42 581.09 C 186.927 581.09 167.076 600.941 167.076 625.4340000000001 C 167.076 636.6010000000001 171.2012 646.7930000000001 178.01399999999998 654.59 C 181.892 658.6418 184.6135 664.5133000000001 185.48279999999997 671.246 L 185.50189999999998 683.675 C 185.50189999999998 688.1277 189.0775 691.7034 193.53029999999998 691.7034 L 229.31029999999998 691.7034 C 233.76299999999998 691.7034 237.3387 688.1278 237.3387 683.675 L 237.32659999999998 671.246 C 238.19110999999998 664.5264 240.93689999999998 658.672 244.79539999999997 654.621 C 244.79839999999996 654.611 244.79339999999996 654.5995 244.79539999999997 654.5898 C 251.61099999999996 646.7922 255.76439999999997 636.6038 255.76439999999997 625.4338 C 255.76439999999997 600.9408 235.91339999999997 581.0898 211.42039999999997 581.0898 z" stroke-linecap="round" />
</g>
		<g transform="matrix(1 0 0 1 -21.29 -46.27)" id="9qEZTLXVMEIMwk-LK3gfC"  >
<path style="stroke: none; stroke-width: 1; stroke-dasharray: none; stroke-linecap: butt; stroke-dashoffset: 0; stroke-linejoin: miter; stroke-miterlimit: 4; fill: rgb(255,255,255); fill-rule: nonzero; opacity: 1;" vector-effect="non-scaling-stroke"  transform=" translate(-190.13, -610.76)" d="M 198.38 591.37 C 184.833 598.1171 175.442 611.99 175.442 628.182 C 175.442 628.78874 175.57023 629.5116 175.6295 630.1508 L 187.5675 628.1196 C 188.9235 616.9926 195.48329999999999 607.5246 204.8175 602.2136 L 198.38 591.3696 z" stroke-linecap="round" />
</g>
</g>
</g>
</svg>